<svg width="67" height="70" viewBox="0 0 67 70" fill="none" xmlns="http://www.w3.org/2000/svg">
<rect width="67" height="70" rx="20" fill="white"/>
<path d="M19 28.1076C19 21.4208 24.4208 16 31.1076 16V16V54.0179V54.0179C24.4208 54.0179 19 48.5972 19 41.9103V28.1076Z" fill="#338FC2"/>
<path d="M49.9951 16V16C49.9951 22.6869 44.5743 28.1076 37.8875 28.1076L31.1072 28.1076L31.1072 16L49.9951 16Z" fill="#338FC2"/>
<path d="M49.9951 16V16C49.9951 22.6869 44.5743 28.1076 37.8875 28.1076L31.1072 28.1076L31.1072 23.5C31.1072 19.3579 34.4651 16 38.6072 16L49.9951 16Z" fill="#01DBB4"/>
<path d="M49.9951 54.0179V54.0179C49.9951 47.3311 44.5743 41.9103 37.8875 41.9103L31.1072 41.9103L31.1072 54.0179L49.9951 54.0179Z" fill="#338FC2"/>
<path d="M49.9951 54.0179V54.0179C49.9951 47.3311 44.5743 41.9103 37.8875 41.9103L31.1072 41.9103L31.1072 46.518C31.1072 50.6601 34.4651 54.0179 38.6072 54.0179L49.9951 54.0179Z" fill="#01DBB4"/>
</svg>
