<svg width="39" height="39" viewBox="0 0 39 39" fill="none" xmlns="http://www.w3.org/2000/svg">
<path d="M19.5 6.5C26.65 6.5 32.5 12.35 32.5 19.5C32.5 26.65 26.65 32.5 19.5 32.5C12.35 32.5 6.5 26.65 6.5 19.5C6.5 12.35 12.35 6.5 19.5 6.5ZM19.5 3.25C10.5625 3.25 3.25 10.5625 3.25 19.5C3.25 28.4375 10.5625 35.75 19.5 35.75C28.4375 35.75 35.75 28.4375 35.75 19.5C35.75 10.5625 28.4375 3.25 19.5 3.25ZM27.625 27.625H11.375V24.375H27.625V27.625ZM13 22.75V17.875H16.25V22.75H13ZM17.875 22.75V17.875H21.125V22.75H17.875ZM22.75 22.75V17.875H26V22.75H22.75ZM27.625 16.25H11.375V13.8125L19.5 9.75L27.625 13.8125V16.25Z" fill="#555555"/>
</svg>
