<svg width="31" height="27" viewBox="0 0 31 27" fill="none" xmlns="http://www.w3.org/2000/svg">
<path d="M28.7857 8.99278C29.3969 8.99278 29.9188 9.21233 30.3513 9.65143C30.7838 10.0905 31 10.6204 31 11.241C31 11.8616 30.7838 12.3914 30.3513 12.8305C29.9188 13.2696 29.3969 13.4892 28.7857 13.4892V20.2337C28.7857 20.8426 28.5666 21.3696 28.1283 21.8145C27.6901 22.2595 27.1711 22.4819 26.5714 22.4819C21.7623 18.4188 17.08 16.194 12.5246 15.8076C11.8557 16.0301 11.3309 16.4165 10.9503 16.9668C10.5698 17.5172 10.391 18.1056 10.4141 18.732C10.4371 19.3585 10.6678 19.9 11.106 20.3567C10.8754 20.7431 10.7427 21.1266 10.7081 21.5071C10.6735 21.8877 10.7081 22.2273 10.8119 22.5259C10.9157 22.8244 11.1089 23.1464 11.3915 23.4919C11.674 23.8373 11.9508 24.13 12.2218 24.3701C12.4928 24.6101 12.8475 24.9058 13.2857 25.2571C12.9513 25.9362 12.3083 26.4221 11.3569 26.7149C10.4054 27.0076 9.43378 27.0749 8.44196 26.9169C7.45015 26.7588 6.68899 26.4338 6.15848 25.9421C6.07775 25.6727 5.90764 25.1605 5.64816 24.4052C5.38867 23.65 5.20415 23.0967 5.09459 22.7454C4.98503 22.3941 4.8524 21.8731 4.69671 21.1822C4.54102 20.4914 4.45452 19.9 4.43722 19.4082C4.41992 18.9164 4.4401 18.3398 4.49777 17.6782C4.55543 17.0166 4.68229 16.3697 4.87835 15.7374H2.76786C2.0067 15.7374 1.3551 15.4622 0.813058 14.9119C0.271019 14.3615 0 13.6999 0 12.9271V9.55483C0 8.78201 0.271019 8.12043 0.813058 7.57009C1.3551 7.01975 2.0067 6.74458 2.76786 6.74458H11.0714C16.0882 6.74458 21.2548 4.49639 26.5714 0C27.1711 0 27.6901 0.222478 28.1283 0.667433C28.5666 1.11239 28.7857 1.63931 28.7857 2.24819V8.99278ZM26.5714 19.6014V2.84537C22.0275 6.38159 17.599 8.38975 13.2857 8.86983V13.6121C17.6336 14.1039 22.0621 16.1003 26.5714 19.6014Z" fill="#555555"/>
</svg>
