<svg width="39" height="39" viewBox="0 0 39 39" fill="none" xmlns="http://www.w3.org/2000/svg">
<path d="M14.8316 16.6684C14.7184 16.5549 14.5839 16.4648 14.4359 16.4034C14.2878 16.3419 14.1291 16.3103 13.9688 16.3103C13.8084 16.3103 13.6497 16.3419 13.5016 16.4034C13.3536 16.4648 13.2191 16.5549 13.1059 16.6684L11.5312 18.2454L9.95663 16.6684C9.84331 16.5551 9.70879 16.4652 9.56073 16.4038C9.41268 16.3425 9.254 16.311 9.09375 16.311C8.9335 16.311 8.77482 16.3425 8.62677 16.4038C8.47871 16.4652 8.34419 16.5551 8.23087 16.6684C8.11756 16.7817 8.02767 16.9162 7.96635 17.0643C7.90502 17.2123 7.87346 17.371 7.87346 17.5312C7.87346 17.6915 7.90502 17.8502 7.96635 17.9982C8.02767 18.1463 8.11756 18.2808 8.23087 18.3941L9.80794 19.9688L8.23087 21.5434C8.11756 21.6567 8.02767 21.7912 7.96635 21.9393C7.90502 22.0873 7.87346 22.246 7.87346 22.4062C7.87346 22.5665 7.90502 22.7252 7.96635 22.8732C8.02767 23.0213 8.11756 23.1558 8.23087 23.2691C8.45972 23.498 8.77011 23.6265 9.09375 23.6265C9.254 23.6265 9.41268 23.595 9.56073 23.5337C9.70879 23.4723 9.84331 23.3824 9.95663 23.2691L11.5312 21.6921L13.1059 23.2691C13.2192 23.3824 13.3537 23.4723 13.5018 23.5337C13.6498 23.595 13.8085 23.6265 13.9688 23.6265C14.129 23.6265 14.2877 23.595 14.4357 23.5337C14.5838 23.4723 14.7183 23.3824 14.8316 23.2691C14.9449 23.1558 15.0348 23.0213 15.0962 22.8732C15.1575 22.7252 15.189 22.5665 15.189 22.4062C15.189 22.246 15.1575 22.0873 15.0962 21.9393C15.0348 21.7912 14.9449 21.6567 14.8316 21.5434L13.2546 19.9688L14.8316 18.3941C14.9451 18.2809 15.0352 18.1464 15.0966 17.9984C15.1581 17.8503 15.1897 17.6916 15.1897 17.5312C15.1897 17.3709 15.1581 17.2122 15.0966 17.0641C15.0352 16.9161 14.9451 16.7816 14.8316 16.6684ZM22.8559 16.6684C22.9692 16.5551 23.1037 16.4652 23.2518 16.4038C23.3998 16.3425 23.5585 16.311 23.7188 16.311C23.879 16.311 24.0377 16.3425 24.1857 16.4038C24.3338 16.4652 24.4683 16.5551 24.5816 16.6684C24.6949 16.7817 24.7848 16.9162 24.8462 17.0643C24.9075 17.2123 24.939 17.371 24.939 17.5312C24.939 17.6915 24.9075 17.8502 24.8462 17.9982C24.7848 18.1463 24.6949 18.2808 24.5816 18.3941L23.0046 19.9688L24.5816 21.5434C24.8105 21.7722 24.939 22.0826 24.939 22.4062C24.939 22.7299 24.8105 23.0403 24.5816 23.2691C24.3528 23.498 24.0424 23.6265 23.7188 23.6265C23.3951 23.6265 23.0847 23.498 22.8559 23.2691L21.2812 21.6921L19.7066 23.2691C19.5933 23.3824 19.4588 23.4723 19.3107 23.5337C19.1627 23.595 19.004 23.6265 18.8438 23.6265C18.6835 23.6265 18.5248 23.595 18.3768 23.5337C18.2287 23.4723 18.0942 23.3824 17.9809 23.2691C17.8676 23.1558 17.7777 23.0213 17.7163 22.8732C17.655 22.7252 17.6235 22.5665 17.6235 22.4062C17.6235 22.246 17.655 22.0873 17.7163 21.9393C17.7777 21.7912 17.8676 21.6567 17.9809 21.5434L19.5579 19.9688L17.9809 18.3941C17.8676 18.2808 17.7777 18.1463 17.7163 17.9982C17.655 17.8502 17.6235 17.6915 17.6235 17.5312C17.6235 17.371 17.655 17.2123 17.7163 17.0643C17.7777 16.9162 17.8676 16.7817 17.9809 16.6684C18.0942 16.5551 18.2287 16.4652 18.3768 16.4038C18.5248 16.3425 18.6835 16.311 18.8438 16.311C19.004 16.311 19.1627 16.3425 19.3107 16.4038C19.4588 16.4652 19.5933 16.5551 19.7066 16.6684L21.2812 18.2454L22.8559 16.6684V16.6684ZM28.5938 21.1875C28.2705 21.1875 27.9605 21.3159 27.732 21.5445C27.5034 21.773 27.375 22.083 27.375 22.4062C27.375 22.7295 27.5034 23.0395 27.732 23.268C27.9605 23.4966 28.2705 23.625 28.5938 23.625H31.0312C31.3545 23.625 31.6645 23.4966 31.893 23.268C32.1216 23.0395 32.25 22.7295 32.25 22.4062C32.25 22.083 32.1216 21.773 31.893 21.5445C31.6645 21.3159 31.3545 21.1875 31.0312 21.1875H28.5938ZM9.09375 9C7.47759 9 5.92762 9.64202 4.78482 10.7848C3.64202 11.9276 3 13.4776 3 15.0938V24.8438C3 25.644 3.15762 26.4364 3.46386 27.1757C3.7701 27.9151 4.21896 28.5868 4.78482 29.1527C5.92762 30.2955 7.47759 30.9375 9.09375 30.9375H31.0312C31.8315 30.9375 32.6239 30.7799 33.3632 30.4736C34.1026 30.1674 34.7743 29.7185 35.3402 29.1527C35.906 28.5868 36.3549 27.9151 36.6611 27.1757C36.9674 26.4364 37.125 25.644 37.125 24.8438V15.0938C37.125 13.4776 36.483 11.9276 35.3402 10.7848C34.1974 9.64202 32.6474 9 31.0312 9H9.09375ZM5.4375 15.0938C5.4375 14.1241 5.82271 13.1941 6.50839 12.5084C7.19407 11.8227 8.12405 11.4375 9.09375 11.4375H31.0312C32.0009 11.4375 32.9309 11.8227 33.6166 12.5084C34.3023 13.1941 34.6875 14.1241 34.6875 15.0938V24.8438C34.6875 25.8134 34.3023 26.7434 33.6166 27.4291C32.9309 28.1148 32.0009 28.5 31.0312 28.5H9.09375C8.12405 28.5 7.19407 28.1148 6.50839 27.4291C5.82271 26.7434 5.4375 25.8134 5.4375 24.8438V15.0938Z" fill="#555555"/>
</svg>
