<svg width="35" height="30" viewBox="0 0 35 30" fill="none" xmlns="http://www.w3.org/2000/svg">
<path d="M31.5 0H3.5C1.575 0 0 1.6875 0 3.75V26.25C0 28.3125 1.575 30 3.5 30H31.5C33.425 30 35 28.3125 35 26.25V3.75C35 1.6875 33.425 0 31.5 0ZM9.87 20.625H7.8575V12.1875L6.2825 13.425L5.2675 11.7563L8.3475 9.375H9.87V20.625ZM20.125 20.625H13.3175V18.7125C15.19 16.7062 16.415 15.3938 17.045 14.6812C17.745 13.8938 17.99 13.3875 17.99 12.6938C17.99 11.9438 17.4475 11.3438 16.5725 11.3438C15.6625 11.3438 15.1725 12.075 14.9975 12.6938L13.23 11.9063C13.2475 11.8688 13.545 10.4812 14.98 9.75C16.1875 9.13125 17.57 9.375 18.3925 9.80625C19.8975 10.6312 19.985 12.1313 19.985 12.5813C19.985 13.7812 19.4425 14.9437 18.375 16.0687C17.9375 16.5375 17.115 17.4 15.925 18.675L15.9775 18.7688H20.125V20.625ZM29.3125 19.0312C29.1725 19.275 28.3325 20.625 26.2325 20.625C26.1625 20.625 23.4325 20.775 22.645 17.7937L24.4475 17.025C24.5 17.2125 24.78 18.6375 26.2325 18.6375C26.95 18.6375 27.79 18.1125 27.79 17.1938C27.79 16.1625 26.95 15.7125 25.97 15.7125H25.095V13.8375H25.9C26.4775 13.8375 27.44 13.575 27.44 12.4875C27.44 11.7562 26.8975 11.2688 26.1275 11.2688C25.2525 11.2688 24.8325 11.8687 24.64 12.4687L22.9075 11.7C23.1 11.0625 23.94 9.375 26.145 9.375C28.0525 9.375 28.84 10.575 28.98 10.7812C29.5575 11.7188 29.47 12.9562 29.015 13.725C28.7525 14.1375 28.455 14.4375 28.105 14.625V14.7562C28.595 14.9625 28.9975 15.2813 29.295 15.7313C29.9425 16.7063 29.8725 18.1125 29.3125 19.0312Z" fill="#555555"/>
</svg>
