<svg width="31" height="31" viewBox="0 0 31 31" fill="none" xmlns="http://www.w3.org/2000/svg">
<path d="M9.68717 2.58324C7.37509 4.06865 5.81217 6.69073 5.81217 9.6874C5.81217 12.6841 7.37509 15.3062 9.72592 16.7916C5.76051 16.7916 2.58301 13.6141 2.58301 9.6874C2.58301 7.80326 3.33148 5.99629 4.66377 4.664C5.99606 3.33171 7.80303 2.58324 9.68717 2.58324ZM24.6318 4.52074L26.4788 6.36782L6.36759 26.4791L4.5205 24.632L24.6318 4.52074ZM16.6493 7.65949L14.7376 6.45824L12.8776 7.7499L13.4201 5.55407L11.6247 4.1849L13.8851 4.0299L14.6343 1.89865L15.4997 4.00407L17.7343 4.04282L15.9905 5.5024L16.6493 7.65949ZM12.3868 12.3224L10.8884 11.3795L9.44176 12.387L9.88092 10.682L8.47301 9.6099L10.2297 9.49365L10.8109 7.8274L11.4697 9.46782L13.2263 9.50657L11.8701 10.6303L12.3868 12.3224ZM24.5413 17.4374C24.5413 19.3215 23.7929 21.1285 22.4606 22.4608C21.1283 23.7931 19.3213 24.5416 17.4372 24.5416C15.8613 24.5416 14.4018 24.0249 13.2263 23.1595L23.1593 13.2266C24.0247 14.402 24.5413 15.8616 24.5413 17.4374ZM18.858 25.9366L22.4359 24.4512L22.1259 28.7782L18.858 25.9366ZM24.4509 22.4491L25.9363 18.8712L28.778 22.152L24.4509 22.4491ZM25.9363 16.0424L24.4638 12.4516L28.778 12.7616L25.9363 16.0424ZM12.4384 24.4512L16.0163 25.9366L12.7484 28.7653L12.4384 24.4512Z" fill="#999999"/>
</svg>
