<svg width="30" height="30" viewBox="0 0 30 30" fill="none" xmlns="http://www.w3.org/2000/svg">
<path d="M25.3125 8.4375H6.5625C6.31386 8.4375 6.0754 8.33873 5.89959 8.16291C5.72377 7.9871 5.625 7.74864 5.625 7.5C5.625 7.25136 5.72377 7.0129 5.89959 6.83709C6.0754 6.66127 6.31386 6.5625 6.5625 6.5625H22.5C22.7486 6.5625 22.9871 6.46373 23.1629 6.28791C23.3387 6.1121 23.4375 5.87364 23.4375 5.625C23.4375 5.37636 23.3387 5.1379 23.1629 4.96209C22.9871 4.78627 22.7486 4.6875 22.5 4.6875H6.5625C5.81753 4.69058 5.10395 4.98789 4.57717 5.51467C4.05039 6.04145 3.75308 6.75503 3.75 7.5V22.5C3.75308 23.245 4.05039 23.9586 4.57717 24.4853C5.10395 25.0121 5.81753 25.3094 6.5625 25.3125H25.3125C25.8098 25.3125 26.2867 25.115 26.6383 24.7633C26.99 24.4117 27.1875 23.9348 27.1875 23.4375V10.3125C27.1875 9.81522 26.99 9.33831 26.6383 8.98668C26.2867 8.63504 25.8098 8.4375 25.3125 8.4375ZM25.3125 23.4375H6.5625C6.31386 23.4375 6.0754 23.3387 5.89959 23.1629C5.72377 22.9871 5.625 22.7486 5.625 22.5V10.1484C5.92567 10.2569 6.24287 10.3124 6.5625 10.3125H25.3125V23.4375ZM19.6875 16.875C19.6875 16.5969 19.77 16.325 19.9245 16.0937C20.079 15.8625 20.2986 15.6822 20.5556 15.5758C20.8126 15.4694 21.0953 15.4415 21.3681 15.4958C21.6409 15.55 21.8915 15.684 22.0881 15.8806C22.2848 16.0773 22.4187 16.3279 22.473 16.6007C22.5272 16.8734 22.4994 17.1562 22.393 17.4131C22.2865 17.6701 22.1063 17.8897 21.875 18.0443C21.6438 18.1988 21.3719 18.2812 21.0938 18.2812C20.7208 18.2812 20.3631 18.1331 20.0994 17.8694C19.8357 17.6056 19.6875 17.248 19.6875 16.875Z" fill="white"/>
</svg>
