<svg width="33" height="22" viewBox="0 0 33 22" fill="none" xmlns="http://www.w3.org/2000/svg">
<path d="M16.5 9.57L20.38 9.57L20.38 10.54L16.5 10.54L16.5 9.57ZM16.2 10.54L12.15 10.54L12.15 9.57L16.2 9.57L16.2 10.54ZM19.54 14.3L13.96 9.26L14.39 9.5L14.42 14L12.95 14L12.95 6.35L13.01 6.35L18.47 11.37L18.15 11.23L18.12 6.64L19.58 6.64L19.58 14.3L19.54 14.3Z" fill="#999999"/>
<path d="M8.52637 6.71045L24.4737 6.71045L24.4737 16.2105C24.4737 18.4196 22.6829 20.2105 20.4737 20.2105L12.5264 20.2105C10.3172 20.2104 8.52636 18.4196 8.52637 16.2104L8.52637 6.71045Z" stroke="#999999" stroke-width="2"/>
<path d="M8.75 13.0525L4.26316 13.0525C2.46096 13.0525 0.999999 11.5916 0.999999 9.78937V9.78937C1 7.98718 2.46097 6.52621 4.26316 6.52622L28.7368 6.52622C30.539 6.52622 32 7.98719 32 9.78938V9.78938C32 11.5916 30.539 13.0525 28.7368 13.0525L24.25 13.0525" stroke="#999999" stroke-width="2"/>
<circle cx="8.75041" cy="2.03938" r="2.03947" fill="#999999"/>
<circle cx="13.6449" cy="2.03938" r="2.03947" fill="#999999"/>
<circle cx="18.5395" cy="2.03938" r="2.03947" fill="#999999"/>
<circle cx="23.434" cy="2.03938" r="2.03947" fill="#999999"/>
</svg>
